<svg width="22" height="22" viewBox="0 0 22 22" xmlns="http://www.w3.org/2000/svg">
<path fill-rule="evenodd" clip-rule="evenodd" d="M13.1482 13.8635V12.4316C13.4704 12.2719 14.3918 11.1751 14.4884 10.3181C14.7418 10.2988 15.14 10.0661 15.2574 9.14753C15.3204 8.65425 15.0698 8.37719 14.9179 8.28984C14.9179 8.28984 15.296 7.57176 15.296 6.70475C15.296 4.96645 14.6137 3.48303 13.1482 3.48303C13.1482 3.48303 12.6391 2.40912 11.0004 2.40912C7.96334 2.40912 6.70472 4.35719 6.70472 6.70475C6.70472 7.49515 7.08273 8.28984 7.08273 8.28984C6.93096 8.37719 6.68038 8.65497 6.74338 9.14753C6.86079 10.0661 7.25886 10.2988 7.5123 10.3181C7.60896 11.1751 8.53037 12.2719 8.85254 12.4316V13.8635C8.1366 16.0112 2.40909 14.5794 2.40909 19.5909H19.5916C19.5916 14.5794 13.8641 16.0112 13.1482 13.8635Z" fill="#fff"/>
</svg>
