<svg xmlns="http://www.w3.org/2000/svg" xmlns:xlink="http://www.w3.org/1999/xlink"><defs><style>
    .sprite-symbol-usage {display: none;}
    .sprite-symbol-usage:target {display: inline;}
  </style><symbol viewBox="0 0 24 24" id="icon-alert"><path fill-rule="evenodd" clip-rule="evenodd" d="M10.5 2.75c0-.83.67-1.5 1.5-1.5s1.5.67 1.5 1.5v1.17c3.14.68 5.5 3.48 5.5 6.83v6l2 2v1H3v-1l2-2v-6C5 7.4 7.36 4.6 10.5 3.92V2.75zm1.5 20c-1.1 0-1.99-.89-1.99-1.99h3.98c0 1.1-.89 1.99-1.99 1.99z" /></symbol><symbol viewBox="0 0 31 24" id="icon-arrow-back"><path d="M25.538 17.67l2.212-1.78L15.375 6 3 15.9l2.213 1.77 10.162-8.13 10.163 8.13z" /></symbol><symbol viewBox="0 0 14 8" id="icon-arrow-down"><path fill-rule="evenodd" clip-rule="evenodd" d="M13.097 1.916A.91.91 0 0011.812.63L7 5.442 2.188.63A.91.91 0 10.903 1.916L6.357 7.37a.91.91 0 001.286 0l5.454-5.454z" /></symbol><symbol viewBox="0 0 31 19" id="icon-arrow-large"><path d="M16.374 1.547a2 2 0 00-2.827.08L1.181 14.706a2 2 0 102.907 2.748L15.08 5.827l11.629 10.99a2 2 0 102.747-2.906L16.374 1.547zm.653 2.396l-.028-1-3.998.113.028 1 3.998-.113z" /></symbol><symbol viewBox="0 0 28 29" id="icon-arrow-left"><path fill-rule="evenodd" clip-rule="evenodd" d="M16.963 22.96a1.262 1.262 0 001.784-1.784L12.071 14.5l6.676-6.676a1.261 1.261 0 10-1.784-1.784l-7.568 7.568a1.261 1.261 0 000 1.784l7.568 7.568z" /></symbol><symbol viewBox="0 0 29 29" id="icon-arrow-right"><path fill-rule="evenodd" clip-rule="evenodd" d="M11.68 6.04a1.261 1.261 0 10-1.785 1.784l6.677 6.676-6.677 6.676a1.261 1.261 0 101.784 1.784l7.568-7.568a1.261 1.261 0 000-1.784L11.68 6.04z" /></symbol><symbol viewBox="0 0 26 26" id="icon-basket"><path fill-rule="evenodd" clip-rule="evenodd" d="M13.167 2.5c.39 0 .754.195.97.52l4.32 6.48H22.5c.644 0 1.167.522 1.167 1.167v1.166c0 .645-.523 1.167-1.167 1.167l-.936 8.424a2.333 2.333 0 01-2.32 2.076H7.089a2.333 2.333 0 01-2.319-2.076L3.833 13a1.167 1.167 0 01-1.166-1.167v-1.166c0-.645.522-1.167 1.166-1.167h4.043l4.32-6.48c.216-.325.58-.52.97-.52zm0 3.27l2.486 3.73H10.68l2.487-3.73zm-3.5 8.397c-.645 0-1.167.522-1.167 1.166V20a1.167 1.167 0 102.333 0v-4.667c0-.644-.522-1.166-1.166-1.166zM12 15.333a1.167 1.167 0 012.333 0V20A1.167 1.167 0 0112 20v-4.667zm4.667-1.166c-.645 0-1.167.522-1.167 1.166V20a1.167 1.167 0 102.333 0v-4.667c0-.644-.522-1.166-1.166-1.166z" /></symbol><symbol viewBox="0 0 26 26" id="icon-camera"><path fill-rule="evenodd" clip-rule="evenodd" d="M3.833 6c-.644 0-1.166.522-1.166 1.167v11.666c0 .645.522 1.167 1.166 1.167h12.834c.644 0 1.166-.522 1.166-1.167V7.167c0-.645-.522-1.167-1.166-1.167H3.833zm19.834 11.183V8.817c0-1.04-1.257-1.56-1.992-.825L19 10.667v4.666l2.675 2.675c.735.735 1.992.215 1.992-.825z" /></symbol><symbol viewBox="0 0 19 18" id="icon-clock"><path fill-rule="evenodd" clip-rule="evenodd" d="M16.54 8.75a7.12 7.12 0 11-14.24 0 7.12 7.12 0 0114.24 0zM9.42 4.003c.436 0 .79.354.79.791V7.96h1.583a.791.791 0 010 1.582H9.419a.791.791 0 01-.79-.791V4.794c0-.437.354-.79.79-.79z" /></symbol><symbol viewBox="0 0 20 20" id="icon-clock-lineout"><path fill-rule="evenodd" clip-rule="evenodd" d="M10 1.667c-4.583 0-8.333 3.75-8.333 8.333s3.75 8.333 8.333 8.333 8.333-3.75 8.333-8.333S14.583 1.667 10 1.667zm0 15A6.675 6.675 0 013.333 10 6.676 6.676 0 0110 3.333 6.675 6.675 0 0116.667 10 6.675 6.675 0 0110 16.667zM9.167 5.833h1.25v4.334l3.75 2.25L13.5 13.5l-4.333-2.667v-5z" /></symbol><symbol viewBox="0 0 28 28" id="icon-comments"><path fill-rule="evenodd" clip-rule="evenodd" d="M2.545 5.09a2.545 2.545 0 012.546-2.545h17.818a2.545 2.545 0 012.546 2.546v12.727a2.545 2.545 0 01-2.546 2.546H12.727l-5.09 5.09v-5.09H5.09a2.545 2.545 0 01-2.546-2.546V5.091zm6.364 7.637a1.273 1.273 0 100-2.545 1.273 1.273 0 000 2.545zm5.091 0a1.273 1.273 0 100-2.545 1.273 1.273 0 000 2.545zm6.364-1.272a1.273 1.273 0 11-2.546 0 1.273 1.273 0 012.546 0z" /></symbol><symbol viewBox="0 0 19 19" id="icon-date"><path fill-rule="evenodd" clip-rule="evenodd" d="M4.673 3.076a.791.791 0 00-.791.792v.79H3.09a.791.791 0 00-.791.792v10.284c0 .437.354.791.79.791h12.658a.791.791 0 00.792-.79V5.45a.791.791 0 00-.792-.791h-.79v-.791a.791.791 0 00-1.583 0v.79H5.464v-.79a.791.791 0 00-.791-.792zm-.791 3.956h11.075v7.911H3.882V7.032zm4.747 2.373H6.255v2.374H8.63V9.405z" /></symbol><symbol viewBox="0 0 26 26" id="icon-marker"><path fill-rule="evenodd" clip-rule="evenodd" d="M13.167 23.5c5.799 0 10.5-4.701 10.5-10.5h-2.334a8.167 8.167 0 11-4.553-7.326l1.556-1.816a10.452 10.452 0 00-5.17-1.358c-5.798 0-10.5 4.701-10.5 10.5s4.702 10.5 10.5 10.5zm7.867-14.386a1.167 1.167 0 10-1.735-1.561l-6.524 7.25-2.28-2.296a1.167 1.167 0 00-1.656 1.645l3.15 3.17a1.166 1.166 0 001.695-.041l7.35-8.167z" /></symbol><symbol viewBox="0 0 24 24" id="icon-menu"><path fill-rule="evenodd" clip-rule="evenodd" d="M4 8h4V4H4v4zm6 12h4v-4h-4v4zm-2 0H4v-4h4v4zm-4-6h4v-4H4v4zm10 0h-4v-4h4v4zm2-10v4h4V4h-4zm-2 4h-4V4h4v4zm2 6h4v-4h-4v4zm4 6h-4v-4h4v4z" /></symbol><symbol viewBox="0 0 23 23" id="icon-search"><path fill-rule="evenodd" clip-rule="evenodd" d="M14.688 8.568a6.12 6.12 0 11-12.24 0 6.12 6.12 0 0112.24 0zm-1.31 7.09A8.568 8.568 0 1115.193 14l6.442 5.905a1.224 1.224 0 01-1.654 1.805l-6.601-6.052z" /></symbol><symbol viewBox="0 0 24 24" id="icon-sort"><path fill-rule="evenodd" clip-rule="evenodd" d="M3 6v2h18V6H3zm0 12h6v-2H3v2zm12-5H3v-2h12v2z" /></symbol><symbol viewBox="0 0 22 22" id="icon-star"><path fill-rule="evenodd" clip-rule="evenodd" d="M11.513 2.386l1.928 5.983 6.023.073c.518.006.733.698.317 1.022l-4.832 3.77 1.795 6.027c.154.519-.407.946-.83.632L11 16.24l-4.914 3.651c-.422.314-.984-.114-.83-.632l1.795-6.027-4.832-3.77c-.416-.323-.201-1.016.317-1.022l6.023-.073 1.928-5.982a.534.534 0 011.026 0z" /></symbol><symbol viewBox="0 0 22 22" id="icon-star-line"><path fill-rule="evenodd" clip-rule="evenodd" d="M11.978 10.351L11 7.314l-.978 3.036-3.362.041 2.698 2.105-.946 3.176L11 13.75l2.588 1.923-.946-3.175 2.698-2.105-3.362-.041zm7.486-1.91c.518.007.733.7.317 1.023l-.333.26-4.5 3.51 1.796 6.027c.154.519-.407.946-.83.632L11 16.24l-4.544 3.377-.37.274c-.422.314-.984-.114-.83-.632l1.795-6.027-4.499-3.51-.333-.26c-.416-.323-.201-1.016.317-1.022l6.023-.073 1.928-5.982a.534.534 0 011.026 0l1.928 5.983 6.023.073z" /></symbol><symbol viewBox="0 0 22 22" id="icon-user"><path fill-rule="evenodd" clip-rule="evenodd" d="M13.148 13.864v-1.432c.322-.16 1.244-1.257 1.34-2.114.254-.02.652-.252.77-1.17.062-.494-.188-.77-.34-.858 0 0 .378-.718.378-1.585 0-1.739-.682-3.222-2.148-3.222 0 0-.509-1.074-2.148-1.074-3.037 0-4.295 1.948-4.295 4.296 0 .79.378 1.585.378 1.585-.152.087-.403.365-.34.858.118.918.516 1.15.77 1.17.096.857 1.017 1.954 1.34 2.114v1.431c-.716 2.148-6.444.716-6.444 5.728h17.183c0-5.012-5.728-3.58-6.444-5.728z" /></symbol></defs><use id="icon-alert-usage" xlink:href="#icon-alert" class="sprite-symbol-usage" /><use id="icon-arrow-back-usage" xlink:href="#icon-arrow-back" class="sprite-symbol-usage" /><use id="icon-arrow-down-usage" xlink:href="#icon-arrow-down" class="sprite-symbol-usage" /><use id="icon-arrow-large-usage" xlink:href="#icon-arrow-large" class="sprite-symbol-usage" /><use id="icon-arrow-left-usage" xlink:href="#icon-arrow-left" class="sprite-symbol-usage" /><use id="icon-arrow-right-usage" xlink:href="#icon-arrow-right" class="sprite-symbol-usage" /><use id="icon-basket-usage" xlink:href="#icon-basket" class="sprite-symbol-usage" /><use id="icon-camera-usage" xlink:href="#icon-camera" class="sprite-symbol-usage" /><use id="icon-clock-usage" xlink:href="#icon-clock" class="sprite-symbol-usage" /><use id="icon-clock-lineout-usage" xlink:href="#icon-clock-lineout" class="sprite-symbol-usage" /><use id="icon-comments-usage" xlink:href="#icon-comments" class="sprite-symbol-usage" /><use id="icon-date-usage" xlink:href="#icon-date" class="sprite-symbol-usage" /><use id="icon-marker-usage" xlink:href="#icon-marker" class="sprite-symbol-usage" /><use id="icon-menu-usage" xlink:href="#icon-menu" class="sprite-symbol-usage" /><use id="icon-search-usage" xlink:href="#icon-search" class="sprite-symbol-usage" /><use id="icon-sort-usage" xlink:href="#icon-sort" class="sprite-symbol-usage" /><use id="icon-star-usage" xlink:href="#icon-star" class="sprite-symbol-usage" /><use id="icon-star-line-usage" xlink:href="#icon-star-line" class="sprite-symbol-usage" /><use id="icon-user-usage" xlink:href="#icon-user" class="sprite-symbol-usage" /></svg>